<?xml version="1.0" encoding="UTF-8"?>
<svg id="Layer_2" data-name="Layer 2" xmlns="http://www.w3.org/2000/svg" viewBox="0 0 12 13.77">
  <defs>
    <style>
      .cls-1 {
        fill: #fff;
        fill-rule: evenodd;
        stroke-width: 0px;
      }
    </style>
  </defs>
  <g id="Layer_1-2" data-name="Layer 1">
    <g>
      <path class="cls-1" d="m11.38.36C11.27.14,11.04,0,10.76,0h-1.07c-.31,0-.55.13-.67.35l-1.59,2.33,1.39,1.91,2.44-3.49c.27-.32.17-.62.12-.73"/>
      <path class="cls-1" d="m2.98.33h0c-.24-.33-.57-.33-.67-.33h-1.05c-.27,0-.49.12-.61.34-.12.22-.09.49.07.73l3.9,5.4L.14,12.72c-.16.23-.18.5-.06.72.12.22.34.34.61.34h1.07c.28,0,.52-.14.64-.37l5.01-6.91L2.98.33Z"/>
      <path class="cls-1" d="m11.91,12.77l-3.13-4.29-1.37,1.89,2.47,3.3.06.03c.1.04.2.07.31.07h1.05c.25,0,.47-.11.59-.31.13-.2.13-.45,0-.69"/>
    </g>
  </g>
</svg>