<?xml version="1.0" encoding="UTF-8"?>
<svg id="Layer_2" data-name="Layer 2" xmlns="http://www.w3.org/2000/svg" viewBox="0 0 20 14">
  <defs>
    <style>
      .cls-1 {
        fill: #fff;
        fill-rule: evenodd;
        stroke-width: 0px;
      }
    </style>
  </defs>
  <g id="Layer_1-2" data-name="Layer 1">
    <path class="cls-1" d="m15.95,1.17c.82,0,1.59.7,1.59,1.5,0,1.49-3.91,5.21-3.91,6.99,0,.32.16.48.47.48,1.13,0,3.09-2.83,3.73-3.77.82-1.2,1.49-1.21,1.92-.77.57.58.02,1.75-.38,2.47-1.23,2.23-4.12,5.58-6.65,5.58-.68,0-1.23-.23-1.67-.68-1.61-1.67-.05-4.63,1.23-6.57-2.72,2.11-3.83,5.27-4.79,6.28-.77.81-2.35.3-2.25-1.08.06-.81.3-1.65,1.18-3.19.37-.72.87-1.73,1.18-2.26-4.12,3.32-4.45,6.47-5.45,7.48-.78.79-2.16.27-2.16-1.23C0,9.86,3.6,1.8,5.62.28c.85-.64,1.96-.08,1.96.86,0,.75-1.29,2.65-2.21,4.5,1.94-2.35,3.34-3.92,4.44-4.5,1.2-.63,2.12.05,2.12.95s-.82,2.05-1.81,3.92c1.43-1.56,4.43-4.83,5.84-4.83"/>
  </g>
</svg>