<?xml version="1.0" encoding="UTF-8"?>
<svg id="Layer_2" data-name="Layer 2" xmlns="http://www.w3.org/2000/svg" viewBox="0 0 24 9.95">
  <defs>
    <style>
      .cls-1 {
        fill: #fff;
        stroke-width: 0px;
      }
    </style>
  </defs>
  <g id="Layer_1-2" data-name="Layer 1">
    <g>
      <path class="cls-1" d="m1.12,0v6.81c0,.29,0,.58.02.85s.07.51.15.71c.1.19.22.34.41.46.17.12.44.17.78.17.53,0,.92-.17,1.12-.49s.32-.88.32-1.63V0h1.07v6.81c0,.17,0,.36-.02.61,0,.22-.05.46-.07.68-.05.22-.12.46-.22.68s-.24.41-.44.58c-.19.17-.41.32-.71.41-.29.1-.63.17-1.07.17-.61,0-1.07-.1-1.41-.29-.34-.19-.58-.44-.73-.73s-.24-.63-.27-1-.05-.73-.05-1.09V.02h1.12v-.02Z"/>
      <path class="cls-1" d="m5.98,0h1.19l1.31,3.5,1.36-3.5h1.09l-1.9,4.5,2.16,5.25h-1.26l-1.56-4.06-1.56,4.06h-1.09l2.14-5.08L5.98,0Z"/>
      <path class="cls-1" d="m12.13,0h1.9c.51,0,.95.05,1.31.15.34.1.66.32.92.63.07.1.15.19.22.32s.15.27.22.44c.07.17.12.36.15.58.05.22.05.49.05.78,0,.39-.05.75-.15,1.09s-.24.66-.46.92c-.22.27-.49.46-.83.63-.34.15-.75.22-1.26.22h-.95v3.96h-1.12s0-9.73,0-9.73Zm1.12,4.84h.92c.22,0,.44-.02.63-.07.19-.05.36-.15.51-.27.15-.15.27-.34.34-.58s.12-.58.12-.97c0-.49-.07-.88-.19-1.14s-.29-.46-.46-.58c-.17-.12-.36-.19-.56-.22s-.34-.02-.49-.02h-.85v3.87h.02Z"/>
      <path class="cls-1" d="m18.84,0v1.24h-1.09V0h1.09Zm-1.05,2.55h1v7.2h-1V2.55Z"/>
      <path class="cls-1" d="m19.94,2.55h.92v1.09c.02-.07.07-.19.15-.34.07-.15.17-.29.29-.41.12-.15.29-.27.46-.36.19-.1.41-.15.68-.15.32,0,.58.07.8.19.22.15.41.32.51.53.12.22.19.51.22.9.02.36.02.75.02,1.17v4.57h-.97v-4.57c0-.22,0-.44-.02-.68,0-.22-.05-.41-.1-.61-.05-.17-.15-.32-.27-.44s-.29-.17-.51-.17c-.27,0-.46.07-.63.24-.15.17-.27.36-.34.58-.07.24-.12.49-.15.75s-.02.51-.02.71v4.16h-1V2.55h-.05Z"/>
    </g>
  </g>
</svg>