<?xml version="1.0" encoding="UTF-8"?>
<svg id="Layer_2" data-name="Layer 2" xmlns="http://www.w3.org/2000/svg" viewBox="0 0 76.52 63.14">
  <defs>
    <style>
      .cls-1 {
        stroke-width: 0px;
      }
    </style>
  </defs>
  <g id="Layer_1-2" data-name="Layer 1">
    <g>
      <path class="cls-1" d="m29.04,6.13c-5.52,4.16-13.12,12.48-16.24,17.6-11.28,18.8-5.04,29.84-5.04,29.84.96,2.16,3.6,3.68,6.24,4.4,9.68,2.64,24.24-3.04,24.24-3.04,6.96-2.4,16.32-6.16,26.72-5.68,16.64.72,10.88,11.28,9.36,13.68-.16.24-.48.24-.64,0-6.16-8.4-20-6.4-32.08-2.96,0,0-15.12,4.96-25.84,2.48-3.68-.8-7.44-2.48-10.56-6.24,0,0-12.32-13.92.96-35.36C16,5.01,26.64,1.17,31.84.29c3.68-.64,6.4-.32,8.32,2.16,1.28,1.68,1.84,4.8.32,8.32-2.4,5.52-17.28,21.36-15.68,26.72.08.4-.24.72-.64.56-2.48-.8-8.32-3.44-4.48-10,4.56-7.92,21.6-20.16,16.88-24.32-2.16-1.92-7.52,2.4-7.52,2.4Z"/>
      <path class="cls-1" d="m58.16,32.17c-4.4,8.24-9.68,10.4-13.12,9.68,0,0-2.88-.4-3.92-2.72,0,0-2-3.52,1.12-7.28.56-.72,1.28-1.44,2.08-1.92,0,0,4.32-2.88,6,2.16.08.16-.08.32-.24.32-.88,0-3.12.08-5.04,1.52-1.92,1.52-2.24,3.04-1.68,3.84.24.4.88.32.88.32,5.76-.64,15.68-18.88,10.88-19.44-4.48-.4-10.32,7.6-11.92,10-5.2,8.08-11.84,17.52-9.2,26.24.08.24-.08.48-.32.4-1.76-.08-7.84-1.04-5.84-10.72,2.16-10.32,14.16-20.64,13.12-30.72,0-.32.32-.64.64-.64,2.16.16,7.92,1.04,6.8,5.36-.08.24-.16.56-.24.8,2.72-2.8,6-5.04,9.04-4.48,0,0,9.52,1.2.96,17.28Z"/>
    </g>
  </g>
</svg>